{
.appVersion = "1181";
DisplayStrings = (
"/koKai-thai/saraAm-thai/hoHip-thai/noNu-thai/doDek-thai/choChang-thai/soSo-thai/saraA-thai/toTao-thai/saraAa-thai/koKai-thai/roRua-thai/roRua-thai/moMa-thai/choChang-thai/maiHanaKat-thai/maiTho-thai/noNu-thai/boBaimai-thai/noNu-thai  /koKai-thai/saraAa-thai/roRua-thai/boBaimai-thai/maiTho-thai/saraAa-thai/noNu-thai/soSua-thai/moMa-thai/saraAa-thai/khoKhwai-thai/moMa-thai/moMa-thai/loLing-thai/phoPhan-thai/saraI-thai/soRusi-thai"
);
date = "2018-11-30 13:18:12 +0000";
familyName = "New Font";
fontMaster = (
{
ascender = 800;
capHeight = 700;
descender = -200;
id = "3369E137-0736-47AB-8617-ACC0E3FB9068";
userData = {
GSCornerRadius = 120;
GSOffsetHorizontal = 40;
GSOffsetMakeStroke = 1;
GSOffsetVertical = 40;
};
xHeight = 500;
}
);
glyphs = (
{
glyphname = "koKai-thai";
lastChange = "2018-11-30 14:02:42 +0000";
layers = (
{
layerId = "3369E137-0736-47AB-8617-ACC0E3FB9068";
paths = (
{
closed = 1;
nodes = (
"112 0 LINE",
"112 291 LINE SMOOTH",
"112 370 OFFCURVE",
"158 423 OFFCURVE",
"228 423 CURVE SMOOTH",
"298 423 OFFCURVE",
"344 370 OFFCURVE",
"344 291 CURVE SMOOTH",
"344 0 LINE",
"436 0 LINE",
"436 291 LINE SMOOTH",
"436 422 OFFCURVE",
"353 510 OFFCURVE",
"228 510 CURVE SMOOTH",
"103 510 OFFCURVE",
"20 422 OFFCURVE",
"20 291 CURVE SMOOTH",
"20 0 LINE"
);
}
);
width = 456;
}
);
leftMetricsKey = "=20";
rightMetricsKey = "=20";
unicode = 0E01;
},
{
glyphname = "khoKhwai-thai";
lastChange = "2018-12-04 17:45:38 +0000";
layers = (
{
layerId = "3369E137-0736-47AB-8617-ACC0E3FB9068";
paths = (
{
closed = 1;
nodes = (
"129 125 OFFCURVE",
"163 198 OFFCURVE",
"231 198 CURVE",
"298 198 LINE",
"298 275 LINE",
"204 275 LINE",
"153 275 OFFCURVE",
"127 250 OFFCURVE",
"127 199 CURVE",
"129 97 LINE"
);
},
{
closed = 1;
nodes = (
"133 0 LINE",
"133 246 LINE",
"133 360 OFFCURVE",
"178 417 OFFCURVE",
"268 417 CURVE",
"358 417 OFFCURVE",
"403 360 OFFCURVE",
"403 246 CURVE",
"403 0 LINE",
"496 0 LINE",
"496 256 LINE",
"496 419 OFFCURVE",
"420 500 OFFCURVE",
"268 500 CURVE",
"116 500 OFFCURVE",
"40 419 OFFCURVE",
"40 256 CURVE",
"40 0 LINE"
);
}
);
width = 536;
}
);
leftMetricsKey = "=40";
rightMetricsKey = "=40";
unicode = 0E04;
},
{
glyphname = "choChang-thai";
lastChange = "2018-12-06 07:32:44 +0000";
layers = (
{
layerId = "3369E137-0736-47AB-8617-ACC0E3FB9068";
paths = (
{
closed = 1;
nodes = (
"66 422 LINE",
"77 426 OFFCURVE",
"86 432 OFFCURVE",
"103 432 CURVE SMOOTH",
"112 432 OFFCURVE",
"117 425 OFFCURVE",
"117 413 CURVE",
"117 379 OFFCURVE",
"102 362 OFFCURVE",
"85 345 CURVE SMOOTH",
"64 324 OFFCURVE",
"42 305 OFFCURVE",
"41 256 CURVE",
"41 209 LINE SMOOTH",
"41 206 OFFCURVE",
"41 164 OFFCURVE",
"41 161 CURVE SMOOTH",
"43 78 OFFCURVE",
"80 -10 OFFCURVE",
"219 -10 CURVE SMOOTH",
"346 -10 OFFCURVE",
"394 75 OFFCURVE",
"397 154 CURVE SMOOTH",
"397 160 OFFCURVE",
"397 204 OFFCURVE",
"397 209 CURVE SMOOTH",
"397 309 LINE",
"398 341 OFFCURVE",
"378 367 OFFCURVE",
"332 386 CURVE",
"392 420 OFFCURVE",
"407 447 OFFCURVE",
"419 503 CURVE",
"321 503 LINE",
"306 448 OFFCURVE",
"297 435 OFFCURVE",
"238 402 CURVE",
"238 355 LINE",
"278 343 OFFCURVE",
"296 337 OFFCURVE",
"305 309 CURVE",
"305 209 LINE SMOOTH",
"305 204 OFFCURVE",
"305 157 OFFCURVE",
"305 154 CURVE SMOOTH",
"303 117 OFFCURVE",
"284 77 OFFCURVE",
"219 77 CURVE SMOOTH",
"143 77 OFFCURVE",
"134 119 OFFCURVE",
"133 158 CURVE SMOOTH",
"133 161 OFFCURVE",
"133 205 OFFCURVE",
"133 209 CURVE SMOOTH",
"133 260 LINE",
"133 297 OFFCURVE",
"154 306 OFFCURVE",
"171 328 CURVE SMOOTH",
"185 346 OFFCURVE",
"200 371 OFFCURVE",
"203 426 CURVE",
"203 479 OFFCURVE",
"179 510 OFFCURVE",
"128 510 CURVE",
"89 510 OFFCURVE",
"68 500 OFFCURVE",
"39 485 CURVE"
);
}
);
width = 434;
}
);
leftMetricsKey = "=20";
rightMetricsKey = "=20";
unicode = 0E0A;
},
{
glyphname = "soSo-thai";
lastChange = "2018-12-06 07:28:27 +0000";
layers = (
{
layerId = "3369E137-0736-47AB-8617-ACC0E3FB9068";
paths = (
{
closed = 1;
nodes = (
"209.333 71 OFFCURVE",
"177 115 OFFCURVE",
"177 203 CURVE SMOOTH",
"177 250 LINE SMOOTH",
"177 307.333 OFFCURVE",
"199.333 353.333 OFFCURVE",
"244 388 CURVE",
"244 430 LINE SMOOTH",
"244 488 OFFCURVE",
"213 517 OFFCURVE",
"151 517 CURVE SMOOTH",
"54 517 LINE",
"54 434 LINE",
"114 434 LINE SMOOTH",
"128.667 434 OFFCURVE",
"136 426.667 OFFCURVE",
"136 412 CURVE SMOOTH",
"136 402 LINE",
"90 362 OFFCURVE",
"67 311.333 OFFCURVE",
"67 250 CURVE SMOOTH",
"67 203 LINE SMOOTH",
"67 59 OFFCURVE",
"146 -11 OFFCURVE",
"274 -11 CURVE SMOOTH",
"396.667 -11 OFFCURVE",
"480 58.333 OFFCURVE",
"480 209 CURVE SMOOTH",
"480 253 LINE SMOOTH",
"480 322.333 OFFCURVE",
"450 382.667 OFFCURVE",
"390 408 CURVE",
"444 426 OFFCURVE",
"481 465.333 OFFCURVE",
"501 526 CURVE",
"387 526 LINE",
"371 482 OFFCURVE",
"331.667 447.667 OFFCURVE",
"289 433 CURVE",
"289 381 LINE",
"345 369 OFFCURVE",
"370 313 OFFCURVE",
"370 253 CURVE SMOOTH",
"370 209 LINE SMOOTH",
"370 117 OFFCURVE",
"338 71 OFFCURVE",
"274 71 CURVE SMOOTH"
);
}
);
width = 600;
}
);
unicode = 0E0B;
},
{
glyphname = "doDek-thai";
lastChange = "2018-11-30 14:33:24 +0000";
layers = (
{
layerId = "3369E137-0736-47AB-8617-ACC0E3FB9068";
paths = (
{
closed = 1;
nodes = (
"475 500 LINE",
"344 500 LINE",
"268 500 LINE",
"98 500 OFFCURVE",
"20 416 OFFCURVE",
"20 256 CURVE SMOOTH",
"20 102 OFFCURVE",
"126 0 OFFCURVE",
"286 0 CURVE",
"337 0 LINE",
"337 85 LINE",
"298 85 LINE",
"169 89 OFFCURVE",
"113 143 OFFCURVE",
"113 246 CURVE SMOOTH",
"113 356 OFFCURVE",
"147 417 OFFCURVE",
"268 417 CURVE",
"383 417 LINE",
"383 0 LINE",
"475 0 LINE"
);
}
);
width = 515;
}
);
leftMetricsKey = "=20";
rightMetricsKey = "=40";
unicode = 0E14;
},
{
glyphname = "toTao-thai";
lastChange = "2018-11-30 14:36:48 +0000";
layers = (
{
layerId = "3369E137-0736-47AB-8617-ACC0E3FB9068";
paths = (
{
closed = 1;
nodes = (
"470 500 LINE",
"339 500 LINE",
"299 397 LINE",
"263 500 LINE",
"93 500 OFFCURVE",
"15 416 OFFCURVE",
"15 256 CURVE SMOOTH",
"15 102 OFFCURVE",
"121 0 OFFCURVE",
"281 0 CURVE",
"332 0 LINE",
"332 85 LINE",
"293 85 LINE",
"164 89 OFFCURVE",
"108 143 OFFCURVE",
"108 246 CURVE SMOOTH",
"108 356 OFFCURVE",
"144 415 OFFCURVE",
"213 417 CURVE",
"284 249 LINE",
"305 249 LINE",
"378 407 LINE",
"378 0 LINE",
"470 0 LINE"
);
}
);
width = 490;
}
);
leftMetricsKey = "=15";
rightMetricsKey = "=20";
unicode = 0E15;
},
{
glyphname = "noNu-thai";
lastChange = "2018-12-04 17:41:23 +0000";
layers = (
{
layerId = "3369E137-0736-47AB-8617-ACC0E3FB9068";
paths = (
{
closed = 1;
nodes = (
"384 -10 OFFCURVE",
"446 254 OFFCURVE",
"446 472 CURVE",
"446 500 LINE",
"354 500 LINE",
"354 224 LINE",
"354 156 OFFCURVE",
"312 77 OFFCURVE",
"228 77 CURVE",
"157 77 OFFCURVE",
"122 111 OFFCURVE",
"122 179 CURVE",
"122 500 LINE",
"30 500 LINE",
"30 224 LINE",
"30 68 OFFCURVE",
"96 -10 OFFCURVE",
"228 -10 CURVE"
);
},
{
closed = 1;
nodes = (
"446 500 LINE",
"354 500 LINE",
"354 0 LINE",
"446 0 LINE"
);
}
);
width = 486;
}
);
leftMetricsKey = "=30";
rightMetricsKey = "=40";
unicode = 0E19;
},
{
glyphname = "boBaimai-thai";
lastChange = "2018-11-30 14:42:51 +0000";
layers = (
{
layerId = "3369E137-0736-47AB-8617-ACC0E3FB9068";
paths = (
{
closed = 1;
nodes = (
"364 510 LINE",
"364 219 LINE SMOOTH",
"364 140 OFFCURVE",
"318 87 OFFCURVE",
"248 87 CURVE SMOOTH",
"178 87 OFFCURVE",
"132 140 OFFCURVE",
"132 219 CURVE SMOOTH",
"132 510 LINE",
"40 510 LINE",
"40 219 LINE SMOOTH",
"40 88 OFFCURVE",
"123 0 OFFCURVE",
"248 0 CURVE SMOOTH",
"373 0 OFFCURVE",
"456 88 OFFCURVE",
"456 219 CURVE SMOOTH",
"456 510 LINE"
);
}
);
width = 496;
}
);
leftMetricsKey = "=40";
rightMetricsKey = "=40";
unicode = 0E1A;
},
{
glyphname = "moMa-thai";
lastChange = "2018-12-04 17:40:45 +0000";
layers = (
{
layerId = "3369E137-0736-47AB-8617-ACC0E3FB9068";
paths = (
{
closed = 1;
nodes = (
"370 -10 OFFCURVE",
"436 68 OFFCURVE",
"436 224 CURVE",
"436 500 LINE",
"344 500 LINE",
"344 179 LINE",
"344 111 OFFCURVE",
"309 77 OFFCURVE",
"238 77 CURVE",
"154 77 OFFCURVE",
"112 156 OFFCURVE",
"112 224 CURVE",
"112 500 LINE",
"20 500 LINE",
"20 472 LINE",
"20 254 OFFCURVE",
"82 -10 OFFCURVE",
"238 -10 CURVE"
);
},
{
closed = 1;
nodes = (
"112 0 LINE",
"112 500 LINE",
"20 500 LINE",
"20 0 LINE"
);
}
);
width = 456;
}
);
leftMetricsKey = "=20";
rightMetricsKey = "=20";
unicode = 0E21;
},
{
glyphname = "roRua-thai";
lastChange = "2018-11-30 14:30:13 +0000";
layers = (
{
layerId = "3369E137-0736-47AB-8617-ACC0E3FB9068";
paths = (
{
closed = 1;
nodes = (
"67 14 OFFCURVE",
"124 -9 OFFCURVE",
"194 -10 CURVE",
"242 -11 OFFCURVE",
"288 1 OFFCURVE",
"320 23 CURVE",
"363 51 OFFCURVE",
"384 95 OFFCURVE",
"384 148 CURVE",
"384 224 OFFCURVE",
"321 254 OFFCURVE",
"256 276 CURVE",
"245 280 OFFCURVE",
"234 283 OFFCURVE",
"223 286 CURVE",
"167 304 OFFCURVE",
"122 318 OFFCURVE",
"124 366 CURVE",
"126 415 OFFCURVE",
"183 425 OFFCURVE",
"212 425 CURVE",
"212 425 OFFCURVE",
"213 425 OFFCURVE",
"213 425 CURVE",
"253 425 OFFCURVE",
"292 407 OFFCURVE",
"310 380 CURVE",
"376 450 LINE",
"339 488 OFFCURVE",
"277 511 OFFCURVE",
"211 510 CURVE",
"121 508 OFFCURVE",
"26 459 OFFCURVE",
"26 354 CURVE",
"26 283 OFFCURVE",
"74 252 OFFCURVE",
"117 233 CURVE",
"133 227 OFFCURVE",
"151 221 OFFCURVE",
"168 216 CURVE",
"223 198 OFFCURVE",
"292 186 OFFCURVE",
"290 136 CURVE",
"289 113 OFFCURVE",
"280 99 OFFCURVE",
"257 88 CURVE",
"240 78 OFFCURVE",
"220 74 OFFCURVE",
"198 75 CURVE",
"154 77 OFFCURVE",
"113 99 OFFCURVE",
"89 136 CURVE",
"20 62 LINE"
);
}
);
width = 404;
}
);
leftMetricsKey = "=20";
rightMetricsKey = "=20";
unicode = 0E23;
},
{
glyphname = "loLing-thai";
lastChange = "2018-12-04 18:10:55 +0000";
layers = (
{
layerId = "3369E137-0736-47AB-8617-ACC0E3FB9068";
paths = (
{
closed = 1;
nodes = (
"115 367 LINE",
"136 408 OFFCURVE",
"184 426 OFFCURVE",
"238 427 CURVE",
"328 427 OFFCURVE",
"353 370 OFFCURVE",
"351 256 CURVE",
"353 0 LINE",
"446 0 LINE",
"446 266 LINE",
"446 429 OFFCURVE",
"400 510 OFFCURVE",
"238 510 CURVE",
"139 510 OFFCURVE",
"77 480 OFFCURVE",
"41 413 CURVE"
);
},
{
closed = 1;
nodes = (
"134 77 OFFCURVE",
"134 114 QCURVE SMOOTH",
"134 120 LINE",
"133 161 OFFCURVE",
"166 161 QCURVE SMOOTH",
"417 161 LINE",
"417 246 LINE",
"174 246 LINE SMOOTH",
"40 246 OFFCURVE",
"40 120 QCURVE SMOOTH",
"40 101 LINE SMOOTH",
"40 0 OFFCURVE",
"164 0 QCURVE SMOOTH",
"217 0 LINE",
"217 77 LINE",
"166 77 LINE SMOOTH"
);
}
);
width = 486;
}
);
leftMetricsKey = "=40";
rightMetricsKey = "=40";
unicode = 0E25;
},
{
glyphname = "soRusi-thai";
lastChange = "2018-12-04 18:12:09 +0000";
layers = (
{
layerId = "3369E137-0736-47AB-8617-ACC0E3FB9068";
paths = (
{
closed = 1;
nodes = (
"364 510 LINE",
"364 219 LINE SMOOTH",
"364 140 OFFCURVE",
"318 87 OFFCURVE",
"248 87 CURVE SMOOTH",
"178 87 OFFCURVE",
"132 140 OFFCURVE",
"132 219 CURVE SMOOTH",
"132 510 LINE",
"40 510 LINE",
"40 219 LINE SMOOTH",
"40 88 OFFCURVE",
"123 0 OFFCURVE",
"248 0 CURVE SMOOTH",
"373 0 OFFCURVE",
"456 88 OFFCURVE",
"456 219 CURVE SMOOTH",
"456 510 LINE"
);
},
{
closed = 1;
nodes = (
"244 252 OFFCURVE",
"280 227 OFFCURVE",
"325 227 CURVE",
"524 227 LINE",
"524 309 LINE",
"326 309 LINE",
"326 369 LINE",
"244 369 LINE",
"244 293 LINE"
);
}
);
width = 544;
}
);
leftMetricsKey = "=40";
rightMetricsKey = "=30";
unicode = 0E29;
},
{
glyphname = "soSua-thai";
lastChange = "2018-12-04 18:11:02 +0000";
layers = (
{
layerId = "3369E137-0736-47AB-8617-ACC0E3FB9068";
paths = (
{
closed = 1;
nodes = (
"510 509 LINE",
"451 569 LINE",
"331 449 LINE",
"390 388 LINE"
);
},
{
closed = 1;
nodes = (
"115 367 LINE",
"136 408 OFFCURVE",
"184 426 OFFCURVE",
"238 427 CURVE",
"328 427 OFFCURVE",
"353 370 OFFCURVE",
"351 256 CURVE",
"353 0 LINE",
"446 0 LINE",
"446 266 LINE",
"446 429 OFFCURVE",
"400 510 OFFCURVE",
"238 510 CURVE",
"139 510 OFFCURVE",
"77 480 OFFCURVE",
"41 413 CURVE"
);
},
{
closed = 1;
nodes = (
"134 77 OFFCURVE",
"134 114 QCURVE SMOOTH",
"134 120 LINE",
"133 161 OFFCURVE",
"166 161 QCURVE SMOOTH",
"417 161 LINE",
"417 246 LINE",
"174 246 LINE SMOOTH",
"40 246 OFFCURVE",
"40 120 QCURVE SMOOTH",
"40 101 LINE SMOOTH",
"40 0 OFFCURVE",
"164 0 QCURVE SMOOTH",
"217 0 LINE",
"217 77 LINE",
"166 77 LINE SMOOTH"
);
}
);
width = 530;
}
);
leftMetricsKey = "=40";
rightMetricsKey = "=20";
unicode = 0E2A;
},
{
glyphname = "hoHip-thai";
lastChange = "2018-11-30 14:36:22 +0000";
layers = (
{
layerId = "3369E137-0736-47AB-8617-ACC0E3FB9068";
paths = (
{
closed = 1;
nodes = (
"435 500 LINE",
"310 500 LINE",
"82 229 LINE",
"124 151 LINE"
);
},
{
closed = 1;
nodes = (
"133 -1 LINE",
"133 500 LINE",
"40 500 LINE",
"40 0 LINE"
);
},
{
closed = 1;
nodes = (
"347 0 LINE",
"464 0 LINE",
"216 302 LINE",
"137 250 LINE"
);
}
);
width = 474;
}
);
leftMetricsKey = "=40";
rightMetricsKey = "=10";
unicode = 0E2B;
},
{
glyphname = "saraA-thai";
lastChange = "2018-12-06 07:28:13 +0000";
layers = (
{
layerId = "3369E137-0736-47AB-8617-ACC0E3FB9068";
paths = (
{
closed = 1;
nodes = (
"20 112 OFFCURVE",
"46 87 OFFCURVE",
"91 87 CURVE",
"270 87 LINE",
"270 169 LINE",
"102 169 LINE",
"102 229 LINE",
"20 229 LINE",
"20 153 LINE"
);
},
{
closed = 1;
nodes = (
"20 322 OFFCURVE",
"56 297 OFFCURVE",
"101 297 CURVE",
"270 297 LINE",
"270 379 LINE",
"102 379 LINE",
"102 439 LINE",
"20 439 LINE",
"20 363 LINE"
);
}
);
width = 290;
}
);
leftMetricsKey = "=20";
rightMetricsKey = "=20";
unicode = 0E30;
},
{
glyphname = "saraAa-thai";
lastChange = "2018-12-04 17:54:18 +0000";
layers = (
{
layerId = "3369E137-0736-47AB-8617-ACC0E3FB9068";
paths = (
{
closed = 1;
nodes = (
"81 354 LINE",
"101 408 OFFCURVE",
"135 435 OFFCURVE",
"182 435 CURVE SMOOTH",
"227 435 OFFCURVE",
"248 407 OFFCURVE",
"246 352 CURVE",
"246 0 LINE",
"338 0 LINE",
"338 374 LINE SMOOTH",
"338 458 OFFCURVE",
"286 510 OFFCURVE",
"182 510 CURVE",
"95 510 OFFCURVE",
"40 464 OFFCURVE",
"20 392 CURVE"
);
}
);
width = 368;
}
);
leftMetricsKey = "=20";
rightMetricsKey = "=30";
unicode = 0E32;
},
{
glyphname = "saraAm-thai";
lastChange = "2018-11-30 14:39:26 +0000";
layers = (
{
layerId = "3369E137-0736-47AB-8617-ACC0E3FB9068";
paths = (
{
closed = 1;
nodes = (
"335 0 LINE",
"335 379 LINE SMOOTH",
"335 458 OFFCURVE",
"275 510 OFFCURVE",
"186 510 CURVE SMOOTH",
"112 510 OFFCURVE",
"60 482 OFFCURVE",
"20 421 CURVE",
"82 366 LINE",
"109 407 OFFCURVE",
"136 424 OFFCURVE",
"176 424 CURVE SMOOTH",
"224 424 OFFCURVE",
"243 400 OFFCURVE",
"243 343 CURVE SMOOTH",
"243 0 LINE"
);
},
{
closed = 1;
nodes = (
"-39 525 OFFCURVE",
"-7 557 OFFCURVE",
"-7 595 CURVE SMOOTH",
"-7 633 OFFCURVE",
"-39 665 OFFCURVE",
"-77 665 CURVE SMOOTH",
"-115 665 OFFCURVE",
"-147 633 OFFCURVE",
"-147 595 CURVE SMOOTH",
"-147 557 OFFCURVE",
"-115 525 OFFCURVE",
"-77 525 CURVE SMOOTH"
);
},
{
closed = 1;
nodes = (
"-90 572 OFFCURVE",
"-100 582 OFFCURVE",
"-100 595 CURVE SMOOTH",
"-100 608 OFFCURVE",
"-90 618 OFFCURVE",
"-77 618 CURVE SMOOTH",
"-64 618 OFFCURVE",
"-54 608 OFFCURVE",
"-54 595 CURVE SMOOTH",
"-54 582 OFFCURVE",
"-64 572 OFFCURVE",
"-77 572 CURVE SMOOTH"
);
}
);
width = 375;
}
);
leftMetricsKey = "=20";
rightMetricsKey = "=40";
unicode = 0E33;
},
{
glyphname = "maiHanaKat-thai";
lastChange = "2018-11-30 14:42:19 +0000";
layers = (
{
layerId = "3369E137-0736-47AB-8617-ACC0E3FB9068";
paths = (
{
closed = 1;
nodes = (
"-290 583 OFFCURVE",
"-254 558 OFFCURVE",
"-209 558 CURVE",
"-40 558 LINE",
"-40 640 LINE",
"-208 640 LINE",
"-208 700 LINE",
"-290 700 LINE",
"-290 624 LINE"
);
}
);
width = 20;
}
);
unicode = 0E31;
},
{
glyphname = "maiTho-thai";
lastChange = "2018-11-30 14:42:26 +0000";
layers = (
{
layerId = "3369E137-0736-47AB-8617-ACC0E3FB9068";
paths = (
{
closed = 1;
nodes = (
"-134 695 LINE",
"31 854 LINE",
"-17 902 LINE",
"-136 783 LINE",
"-188 845 LINE",
"-236 797 LINE"
);
}
);
width = 1;
}
);
unicode = 0E49;
},
{
glyphname = "saraI-thai";
lastChange = "2018-12-04 18:12:42 +0000";
layers = (
{
layerId = "3369E137-0736-47AB-8617-ACC0E3FB9068";
paths = (
{
closed = 1;
nodes = (
"-398 618 LINE",
"-49 618 LINE",
"-49 700 LINE",
"-397 700 LINE"
);
}
);
width = 1;
}
);
unicode = 0E34;
},
